<svg width="128" height="128" viewBox="0 0 128 128" fill="none" xmlns="http://www.w3.org/2000/svg">
  <g opacity="0.9">
    <circle cx="103" cy="25" r="11" fill="#FFF0AD"/>
    <circle cx="100" cy="22" r="3.5" fill="#FFF9D8" fill-opacity="0.76"/>
    <g stroke="#FFE5A0" stroke-linecap="round" stroke-width="0.75" opacity="0.8">
      <path d="M103 8V12"/>
      <path d="M103 38V42"/>
      <path d="M86 25H90"/>
      <path d="M116 25H120"/>
      <path d="M91 13L94 16"/>
      <path d="M112 34L115 37"/>
      <path d="M115 13L112 16"/>
    </g>
  </g>

  <g stroke="#FFF6DB" stroke-linecap="round" stroke-linejoin="round" opacity="0.72">
    <path d="M16 22L29 26L20 30L16 22Z" fill="#FFF6DB" fill-opacity="0.2"/>
    <path d="M20 30L19 35L23 29" stroke-width="0.7"/>
    <path d="M16 22L22 28" stroke-width="0.6"/>
    <path d="M13 31C9 34 7 38 7 42" stroke-dasharray="1.5 2.5" stroke-opacity="0.5" stroke-width="0.65"/>
  </g>

  <g fill="#FFF6D4">
    <circle cx="45" cy="16" r="0.55" fill-opacity="0.8"/>
    <circle cx="121" cy="57" r="0.4" fill-opacity="0.65"/>
    <circle cx="11" cy="67" r="0.38" fill-opacity="0.62"/>
    <circle cx="115" cy="91" r="0.42" fill-opacity="0.62"/>
  </g>
  <g stroke="#FFF6D4" stroke-linecap="round" opacity="0.74">
    <path d="M35 12V15.2M33.4 13.6H36.6" stroke-width="0.55"/>
    <path d="M118 46V48.6M116.7 47.3H119.3" stroke-width="0.5"/>
  </g>
</svg>
